<?xml version="1.0" encoding="UTF-8" standalone="no"?>
<!-- Created with Inkscape (http://www.inkscape.org/) -->

<svg
   version="1.1"
   id="svg2"
   xml:space="preserve"
   width="423.04385"
   height="180.98318"
   viewBox="0 0 423.04385 180.98318"
   sodipodi:docname="LaBambaLogo.svg"
   inkscape:version="1.1.2 (0a00cf5339, 2022-02-04)"
   xmlns:inkscape="http://www.inkscape.org/namespaces/inkscape"
   xmlns:sodipodi="http://sodipodi.sourceforge.net/DTD/sodipodi-0.dtd"
   xmlns="http://www.w3.org/2000/svg"
   xmlns:svg="http://www.w3.org/2000/svg"><sodipodi:namedview
     id="namedview109"
     pagecolor="#ffffff"
     bordercolor="#666666"
     borderopacity="1.0"
     inkscape:pageshadow="2"
     inkscape:pageopacity="0.0"
     inkscape:pagecheckerboard="0"
     showgrid="false"
     fit-margin-top="0"
     fit-margin-left="0"
     fit-margin-right="0"
     fit-margin-bottom="0"
     inkscape:zoom="0.55270196"
     inkscape:cx="-390.80737"
     inkscape:cy="-116.69942"
     inkscape:window-width="2560"
     inkscape:window-height="1440"
     inkscape:window-x="1920"
     inkscape:window-y="0"
     inkscape:window-maximized="1"
     inkscape:current-layer="g8" /><defs
     id="defs6"><clipPath
       clipPathUnits="userSpaceOnUse"
       id="clipPath16"><path
         d="M 0,1190.551 H 841.89 V 0 H 0 Z"
         id="path14" /></clipPath></defs><g
     id="g8"
     transform="matrix(1.3333333,0,0,-1.3333333,-329.21946,1178.9384)"><g
       id="g10"><g
         id="g12"
         clip-path="url(#clipPath16)"><g
           id="g18"
           transform="translate(395.5635,758.5576)"><path
             d="m 0,0 c 0.358,19.022 0.208,34.544 6.884,52.364 2.828,4.874 5.531,9.75 8.358,14.685 8.408,9.368 14.24,14.047 18.384,19.858 C 23.104,83.241 23.104,83.241 19.719,80.87 12.942,73.188 7.797,67.943 -1.975,63.899 -2.36,60.02 -2.744,56.204 -3.066,52.388 c -0.177,4.569 -0.354,9.073 -0.468,13.642 -1.624,1.444 -3.185,2.824 -4.684,4.205 1.002,-0.003 2.065,-0.006 3.067,-0.007 8.608,14.374 15.808,15.795 31.458,17.759 0.002,0.627 0.003,1.316 0.005,2.004 C 20.367,89.88 14.421,89.707 8.6,89.596 0.144,85.86 -7.569,79.746 -16.583,78.642 c 5.376,23.768 29.785,25.023 48.099,15.593 0.008,3.504 0.017,7.007 0.025,10.45 -5.198,-1.552 -6.264,-2.613 -9.393,-2.605 4.712,7.81 4.712,7.81 5.283,11.001 14.265,-1.098 7.293,-12.159 16.417,-17.562 3.57,1.242 7.264,2.422 10.96,3.604 1.435,-1.945 2.932,-4.012 4.491,-6.019 C 77.67,81.481 81.229,78.408 81.178,56.379 70.635,70.421 65.661,84.265 48.33,85.808 48.328,85.119 48.327,84.431 48.325,83.679 60.639,77.456 63.88,71.44 67.102,58.54 57.103,64.259 51.179,73.222 44.63,82.625 46.362,74.547 45.342,65.79 45.071,57.529 44.319,57.531 43.632,57.533 42.943,57.535 41.022,65.424 39.474,72.5 38.868,80.511 27.089,74.657 23.439,66.341 18.905,54.399 c 2.064,-0.128 4.129,-0.321 6.257,-0.515 0.311,-0.563 0.686,-1.064 1.06,-1.566 -0.251,-0.189 -0.376,-0.313 -0.502,-0.562 -0.562,0.251 -1.063,0.376 -1.626,0.566 -3.129,0.196 -6.32,0.391 -9.386,0.524 C 1.164,41.989 -2.948,23.161 11.481,12.05 c 3.13,-0.008 3.13,-0.008 6.262,1.549 -4.774,-7.498 6.904,-17.538 12.528,-21.433 3.503,-0.132 6.946,-0.329 10.45,-0.523 C 25.263,-8.698 13.562,-7.731 0,0"
             style="fill:#1c1c1b;fill-opacity:1;fill-rule:evenodd;stroke:none"
             id="path20" /></g><g
           id="g22"
           transform="translate(428.2803,883.7036)"><path
             d="m 0,0 c -37.173,0.089 -67.41,-30.065 -67.499,-67.238 -0.088,-37.173 30.003,-67.41 67.177,-67.499 37.173,-0.089 67.408,30.004 67.497,67.177 C 67.264,-30.388 37.173,-0.089 0,0 Z"
             style="fill:none;stroke:#1c1c1b;stroke-width:1;stroke-linecap:butt;stroke-linejoin:miter;stroke-miterlimit:10;stroke-dasharray:none;stroke-opacity:1"
             id="path24" /></g><g
           id="g26"
           transform="translate(510.8232,804.7173)"><path
             d="m 0,0 -1.753,0.003 c -0.187,0.001 -0.625,0.189 -0.687,0.002 -1.199,-3.752 -4.086,-7.5 -3.784,-11.443 0.122,-1.439 0.057,-2.816 0.493,-4.256 0.868,-2.693 0.735,-5.948 2.544,-8.08 l 3.122,-3.575 -0.017,-6.946 c -1.565,-0.247 -3.256,-0.431 -5.258,-0.55 -4.371,3.765 -5.871,4.894 -11.562,6.285 1.255,1.812 2.449,3.499 3.705,5.248 -0.151,16.084 -0.299,32.105 -0.386,48.127 4.196,1.554 5.138,2.677 7.837,6.301 0.289,-10.077 0.641,-20.216 0.992,-30.417 0.692,1.314 2.697,2.747 4.765,3.743 z M 1.878,0.057 0,0 0.011,4.442 C 1.952,5.376 3.957,5.936 5.146,5.806 8.211,5.675 9.831,2.354 17.775,0.645 16.204,-1.729 14.634,-4.166 13.063,-6.603 11.95,-27.565 11.95,-27.565 10.878,-30.754 6.618,-32.746 3.611,-33.74 -0.082,-34.295 l 0.017,6.946 2.933,-3.323 2.759,2.058 C 7.798,-10.533 3.63,0.054 1.878,0.057"
             style="fill:#1c1c1b;fill-opacity:1;fill-rule:evenodd;stroke:none"
             id="path28" /></g><g
           id="g30"
           transform="translate(445.917,774.4585)"><path
             d="m 0,0 c -2.685,3.008 -2.92,8.705 -2.469,14.461 0.452,5.694 1.53,11.511 1.599,14.642 -1.439,0.003 -2.878,0.006 -4.192,0.009 1.888,4.564 3.96,7.437 9.591,7.048 1.56,-2.382 1.56,-2.382 4.436,-3.641 3.57,1.807 5.701,2.866 7.703,2.798 2.003,-0.067 3.878,-1.26 6.937,-3.834 4.513,2.994 5.392,3.931 10.961,3.917 1.998,-1.945 4.121,-3.953 6.246,-5.897 -1.568,-0.998 -3.073,-2.059 -4.452,-3.058 -0.071,-3.315 -0.14,-6.57 -0.148,-9.886 -0.07,-3.253 -0.078,-6.571 -0.149,-9.825 1.186,-0.816 2.375,-1.633 3.624,-2.45 -2.509,-2.309 -5.083,-5.807 -8.642,-2.67 -0.241,4.633 -0.542,9.264 -0.781,13.833 -0.24,4.631 -0.479,9.262 -0.718,13.895 -1.502,0.066 -2.942,0.132 -4.38,0.198 C 22.78,26.73 21.079,21.852 20.629,16.909 20.242,12.028 21.044,7.082 23.54,4.323 17.454,-2.421 10.269,2.228 15.229,8.724 c 0.007,3.255 0.015,6.509 0.022,9.7 0.009,3.255 0.016,6.446 0.023,9.638 -1.81,1.694 -3.251,1.447 -5.816,1.516 C 6.822,26.516 5.372,21.952 5.11,17.197 4.849,12.505 5.776,7.745 7.896,4.361 5.012,1.989 3.693,0.678 0,0"
             style="fill:#1c1c1b;fill-opacity:1;fill-rule:evenodd;stroke:none"
             id="path32" /></g><g
           id="g34"
           transform="translate(246.9146,776.7485)"><path
             d="m 0,0 c 0.251,0.375 0.564,0.749 0.941,1.062 2.446,2.058 4.955,4.181 7.4,6.24 0,0.188 0,0.376 0.001,0.501 0.689,0.248 1.378,0.372 2.067,0.495 12.524,3.6 22.962,-1.995 35.672,0.477 C 35.546,-0.085 32.16,-2.893 18.838,0.456 6.259,0.485 3.065,-0.571 0,0"
             style="fill:#1c1c1b;fill-opacity:1;fill-rule:evenodd;stroke:none"
             id="path36" /></g><g
           id="g38"
           transform="translate(312.5127,808.6953)"><path
             d="m 0,0 -2.065,-0.433 c -1.879,-0.371 -6.857,-14.502 1.498,-27.54 0.062,-0.062 0.25,-0.125 0.5,-0.125 l -0.008,-3.505 c -1.628,-0.747 -3.321,-1.869 -4.825,-2.617 -2.185,2.008 -4.371,4.079 -6.557,6.148 0.341,11.577 -0.624,27.1 11.464,31.077 z M 2.504,0.245 1.065,0.248 0,0 0.007,3.005 c 0.878,0.31 1.817,0.558 2.819,0.681 0.375,-10e-4 3.505,0.305 3.88,0.304 2.81,-2.823 5.557,-5.584 8.366,-8.407 -1.882,-1.81 -3.701,-3.62 -5.52,-5.432 -0.013,-5.694 -0.028,-11.452 -0.041,-17.272 1.814,-0.192 3.628,-0.508 5.505,-0.826 -2.013,-4 -4.269,-5.496 -8.401,-6.3 -1.054,4.383 -3.745,4.014 -6.69,2.644 l 0.008,3.505 c 1.315,0.058 4.571,0.927 4.635,1.302 0.701,5.382 1.555,22.464 -2.064,27.041"
             style="fill:#1c1c1b;fill-opacity:1;fill-rule:evenodd;stroke:none"
             id="path40" /></g><g
           id="g42"
           transform="translate(263.7686,784.7808)"><path
             d="M 0,0 C 0.216,12.203 0.253,27.849 0.471,40.113 12.072,50.161 12.569,48.72 27.202,43.741 20.929,37.5 19.554,38.252 11.489,41.652 7.296,41.662 7.296,41.662 5.916,40.414 5.574,28.085 5.473,12.378 5.256,-0.013 3.504,-0.009 1.751,-0.004 0,0"
             style="fill:#1c1c1b;fill-opacity:1;fill-rule:evenodd;stroke:none"
             id="path44" /></g><g
           id="g46"
           transform="translate(421.7803,808.8086)"><path
             d="M 0,0 C -0.249,0.502 -0.372,1.065 -0.497,1.505 -0.371,1.754 -0.246,1.878 0.005,2.067 1.566,1.061 1.566,1.061 2.125,-1.067 1.375,-0.69 0.687,-0.313 0,0"
             style="fill:#1c1c1b;fill-opacity:1;fill-rule:evenodd;stroke:none"
             id="path48" /></g><g
           id="g50"
           transform="translate(247.022,821.7437)"><path
             d="M 0,0 C 0.845,13.266 7.294,14.752 19.798,9.402 18.166,7.278 16.472,5.092 14.838,2.907 9.394,2.606 7.268,3.674 2.762,3.498 2.446,2.309 2.256,1.184 2.003,-0.005 7.94,-3.273 9.766,1.228 12.893,0.532 12.892,-0.156 14.084,1.156 13.326,-1.596 6.437,-3.957 3.061,-2.572 0,0"
             style="fill:#1c1c1b;fill-opacity:1;fill-rule:evenodd;stroke:none"
             id="path52" /></g><g
           id="g54"
           transform="translate(413.0107,805.3262)"><path
             d="m 0,0 -2.066,-0.433 c -1.879,-0.37 -6.794,-14.502 1.498,-27.539 0.063,-0.063 0.25,-0.064 0.501,-0.065 l -0.009,-3.503 c -1.629,-0.811 -3.321,-1.932 -4.825,-2.681 -2.123,2.071 -4.308,4.079 -6.494,6.149 0.341,11.577 -0.623,27.161 11.402,31.138 z M 2.503,0.245 1.064,0.248 0,0 0.007,3.066 C 0.884,3.315 1.823,3.563 2.826,3.749 3.2,3.748 6.33,3.99 6.706,3.989 9.516,1.229 12.261,-1.594 15.072,-4.417 13.189,-6.165 11.37,-7.976 9.551,-9.786 9.537,-15.543 9.524,-21.238 9.51,-27.058 c 1.814,-0.255 3.628,-0.572 5.506,-0.89 -2.013,-3.937 -4.27,-5.496 -8.402,-6.301 -1.052,4.385 -3.745,4.078 -6.69,2.709 l 0.009,3.503 c 1.314,0.061 4.57,0.929 4.633,1.304 0.702,5.318 1.556,22.4 -2.063,26.978"
             style="fill:#1c1c1b;fill-opacity:1;fill-rule:evenodd;stroke:none"
             id="path56" /></g><g
           id="g58"
           transform="translate(549.1875,805.689)"><path
             d="m 0,0 -2.065,-0.433 c -1.879,-0.371 -6.919,-14.503 1.498,-27.54 0,-0.064 0.187,-0.064 0.501,-0.065 l -0.009,-3.503 c -1.629,-0.809 -3.385,-1.933 -4.888,-2.678 -2.185,2.069 -4.371,4.076 -6.556,6.148 0.403,11.576 -0.56,27.161 11.526,31.138 z M 2.504,0.245 1.064,0.248 0,0 0.007,3.067 C 0.884,3.314 1.824,3.563 2.825,3.748 3.138,3.747 6.331,3.991 6.706,3.99 9.453,1.229 12.262,-1.594 15.01,-4.417 13.128,-6.164 11.309,-7.975 9.488,-9.785 9.475,-15.543 9.461,-21.237 9.447,-27.058 c 1.816,-0.254 3.629,-0.571 5.506,-0.826 -1.95,-4 -4.206,-5.497 -8.339,-6.364 -1.052,4.383 -3.806,4.077 -6.689,2.707 l 0.009,3.503 c 1.313,0.061 4.57,0.929 4.633,1.305 0.702,5.318 1.494,22.401 -2.063,26.978"
             style="fill:#1c1c1b;fill-opacity:1;fill-rule:evenodd;stroke:none"
             id="path60" /></g><g
           id="g62"
           transform="translate(370.8799,799.8574)"><path
             d="m 0,0 -0.925,-20.462 c 2.562,-1.822 5.001,-2.39 7.192,-2.145 l -0.011,-4.632 c -2.755,-0.806 -6.073,-1.173 -10.141,-1.163 -8.88,2.649 -17.323,4.985 -26.467,1.94 0,0.063 0,0.063 0,0.125 l 0.005,2.128 c 1.275,9.822 20.55,9.4 26.735,5.005 0.192,2.189 0.513,5.38 0.706,7.508 0.385,4.067 0.77,8.071 1.218,12.137 0.018,7.386 0.035,14.707 0.053,21.967 -1.065,0.002 -2.129,0.004 -3.129,0.007 -0.654,-11.514 -1.308,-23.151 -1.962,-34.728 -1.878,-0.622 -3.694,-1.18 -5.511,-1.864 0.013,5.257 0.025,10.451 0.038,15.646 -1.502,0.316 -3.003,0.632 -4.442,0.886 0.002,0.876 0.005,1.814 0.007,2.628 1.44,0.31 2.943,0.494 4.445,0.741 0.591,11.763 0.158,13.954 7.439,22.949 3.379,-0.196 8.509,-1.085 11.136,-1.654 L 6.371,20.762 c -1.688,0.629 -3.94,1.135 -6.817,1.642 L -0.614,4.82 C 2.202,4.812 4.456,5.121 6.335,5.68 L 6.32,-0.579 C 4.693,-0.199 2.566,0.056 0,0 m 6.267,-22.607 c 3.129,0.305 5.701,2.302 7.272,5.051 -0.356,8.45 1.037,15.017 -7.219,16.977 L 6.335,5.68 c 2.504,0.807 4.385,2.116 6.017,3.865 -0.485,6.884 -1.354,9.516 -5.981,11.217 l 0.015,6.257 H 6.573 C 13.891,25.187 16.698,21.237 16.67,9.785 10.833,2.79 11.833,2.413 17.136,-4.861 c 0.311,-0.625 0.685,-1.315 1.059,-2.066 -0.841,-11.702 -3.798,-17.89 -11.939,-20.312 z"
             style="fill:#1c1c1b;fill-opacity:1;fill-rule:evenodd;stroke:none"
             id="path64" /></g><g
           id="g66"
           transform="translate(347.8218,814.0547)"><path
             d="M 0,0 C -12.501,6.539 -7.722,16.102 4.675,18.264 8.176,17.003 11.616,15.806 15.179,14.483 11.218,6.919 4.964,8.375 -2.667,9.896 -4.924,8.023 -3.178,5.767 -3.06,3.012 2.132,1.435 1.503,0.435 7.823,-0.08 7.822,-0.394 7.821,-0.768 7.82,-1.143 5.003,-1.137 2.5,-1.319 0,0"
             style="fill:#1c1c1b;fill-opacity:1;fill-rule:evenodd;stroke:none"
             id="path68" /></g></g></g></g></svg>
